<svg xmlns="http://www.w3.org/2000/svg" data-name="Layer 1" viewBox="0 0 128 128"><path d="M111.23841 81.902l-4.1513-44.857a10.59526 10.59526 0 0 0-21.14124.78627l-.32812 6.22131C78.25851 32.06023 63.268 7.70242 63.08934 7.41184a10.606 10.606 0 0 0-6.69715-4.85 10.361 10.361 0 0 0-7.9608 1.35473 10.65909 10.65909 0 0 0-4.35784 5.5542L41.41881 5.1253A10.60636 10.60636 0 0 0 34.72264.27581a10.3612 10.3612 0 0 0-7.96227 1.35424 10.9333 10.9333 0 0 0-3.35395 14.8703l1.51267 2.476a10.35672 10.35672 0 0 0-6.891 1.54617 10.93338 10.93338 0 0 0-3.35346 14.8703l5.1752 8.47073a10.32119 10.32119 0 0 0-6.89051 1.54617A10.93308 10.93308 0 0 0 9.60442 60.27956l27.86378 45.635C45.179 118.53593 59.53227 128.00049 74.64041 128a35.60112 35.60112 0 0 0 17.01924-4.3328c.042-.023.084-.04737.125-.07326l3.23627-2.058c8.02525-5.10539 12.78591-10.87936 15.4343-18.72156 1.93844-5.73783 1.67966-10.96678 1.21385-16.26215C111.44837 84.03326 111.23841 81.90154 111.23841 81.902zm-4.57219 19.63188c-2.33687 6.91724-6.58973 12.0446-13.79175 16.626l-3.17377 2.01793c-18.31414 9.8113-39.19708-.59776-48.819-16.34907L13.01793 58.19423a6.91361 6.91361 0 0 1 2.08784-9.40888 6.63687 6.63687 0 0 1 9.08787 2.1891l17.72368 29.0112a2.034 2.034 0 0 0 2.74948.66371 2.00041 2.00041 0 0 0 .66356-2.75L18.08767 33.30654A6.91265 6.91265 0 0 1 20.175 23.89817a6.63322 6.63322 0 0 1 9.09394 2.19793L56.51665 70.69684a2.03965 2.03965 0 0 0 2.74951.66377 2.00041 2.00041 0 0 0 .66356-2.75L26.81945 14.41454A6.91316 6.91316 0 0 1 28.90724 5.0057a6.62922 6.62922 0 0 1 9.09855 2.20591L71.115 61.40811a2.03556 2.03556 0 0 0 2.75.66376 2.00141 2.00141 0 0 0 .66405-2.75L48.49047 16.70059a6.91121 6.91121 0 0 1 2.08785-9.4084 6.38147 6.38147 0 0 1 4.91056-.83267 6.64 6.64 0 0 1 4.19085 3.044c.21875.35553 21.91857 35.61614 25.89018 42.12657a1.99972 1.99972 0 0 0 3.704-.93718l.668-12.69218a6.597 6.597 0 0 1 13.16774-.54062s4.35539 46.94138 4.57512 49.44231C108.12811 91.94335 108.3576 96.52375 106.66623 101.53391zM16.636 110.12575c-4.53752-1.51833-8.35533-6.35317-10.41486-10.37146a20.0171 20.0171 0 0 1-1.30906-15.1262 2.00019 2.00019 0 0 0-3.8095-1.22092 24.04866 24.04866 0 0 0 1.55906 18.17264c1.17381 2.29044 5.55947 9.949 12.70584 12.33958a2.00005 2.00005 0 0 0 1.26853-3.79364zM21.636 100.1235c-2.34908-.78529-4.36076-3.358-5.46036-5.50439a10.57615 10.57615 0 0 1-.69481-7.99067 1.99972 1.99972 0 1 0-3.80853-1.22092 14.60133 14.60133 0 0 0 .94383 11.03661c.708 1.38208 3.35932 6.005 7.75133 7.474a2.02419 2.02419 0 0 0 2.53121-1.26292A2.0013 2.0013 0 0 0 21.636 100.1235zM123.88761 20.65245c-1.4199-2.1161-6.61707-9.13394-13.86207-10.60783a2.00039 2.00039 0 0 0-.79686 3.92061c4.57023.92985 8.85336 5.21576 11.33867 8.9171a20.188 20.188 0 0 1 3.11811 14.7653 1.99952 1.99952 0 0 0 1.60544 2.329 1.96083 1.96083 0 0 0 .36327.0337 2.00069 2.00069 0 0 0 1.96481-1.639A24.21386 24.21386 0 0 0 123.88761 20.65245zM106.39865 20.53036a2.00039 2.00039 0 0 0-.79686 3.92061c2.35738.47958 4.6132 2.75928 5.93837 4.73326a10.66951 10.66951 0 0 1 1.65036 7.80411 1.99978 1.99978 0 1 0 3.93353.72376 14.69542 14.69542 0 0 0-2.26363-10.75776C114.003 25.67678 110.85854 21.43726 106.39865 20.53036z"/></svg>