<svg focusable="false" xmlns="http://www.w3.org/2000/svg" width="24" height="24" viewBox="0 0 24 24"><path fill-rule="evenodd" d="M19 6c0-.553-.448-1-1-1s-1 .447-1 1c0 .553.448 1 1 1s1-.447 1-1zm-2 6c0 .553.448 1 1 1s1-.447 1-1c0-.553-.448-1-1-1s-1 .447-1 1zm-6 0c0 .553.448 1 1 1s1-.447 1-1c0-.553-.448-1-1-1s-1 .447-1 1zm0 6c0 .553.448 1 1 1s1-.447 1-1c0-.553-.448-1-1-1s-1 .447-1 1zm-6-6c0 .553.448 1 1 1s1-.447 1-1c0-.553-.448-1-1-1s-1 .447-1 1zm0 6c0 .553.448 1 1 1s1-.447 1-1c0-.553-.448-1-1-1s-1 .447-1 1zm6-14h3v4h-4V4h1zm0 3h2V5h-2v2z"></path></svg>